<svg id="Layer_1" data-name="Layer 1" xmlns="http://www.w3.org/2000/svg" viewBox="0 0 512 512"><defs><style>.cls-1{fill:#80d1f9;}.cls-2{fill:#fff;}.cls-3{fill:#f47878;}.cls-4{fill:#141f38;}</style></defs><title>browser-11-filled</title><path class="cls-1" d="M12.8,128V64A51.26,51.26,0,0,1,64,12.8H448A51.26,51.26,0,0,1,499.2,64v64Z"/><path class="cls-2" d="M64,499.2A51.26,51.26,0,0,1,12.8,448V128H499.2V448A51.26,51.26,0,0,1,448,499.2Z"/><rect class="cls-3" x="140.8" y="204.8" width="230.4" height="217.6" rx="19.2" ry="19.2"/><path class="cls-4" d="M448,0H64A64,64,0,0,0,0,64V448a64,64,0,0,0,64,64H448a64,64,0,0,0,64-64V64A64,64,0,0,0,448,0Zm38.4,448A38.44,38.44,0,0,1,448,486.4H64A38.44,38.44,0,0,1,25.6,448V140.8H486.4ZM25.6,115.2V64A38.44,38.44,0,0,1,64,25.6H448A38.44,38.44,0,0,1,486.4,64v51.2Z"/><circle class="cls-4" cx="70.4" cy="70.4" r="19.2"/><circle class="cls-4" cx="121.6" cy="70.4" r="19.2"/><circle class="cls-4" cx="172.8" cy="70.4" r="19.2"/><path class="cls-4" d="M160,435.2H352a32,32,0,0,0,32-32V224a32,32,0,0,0-32-32H160a32,32,0,0,0-32,32V403.2A32,32,0,0,0,160,435.2ZM153.6,224a6.41,6.41,0,0,1,6.4-6.4H352a6.41,6.41,0,0,1,6.4,6.4V403.2a6.41,6.41,0,0,1-6.4,6.4H160a6.41,6.41,0,0,1-6.4-6.4Z"/><path class="cls-4" d="M80.55,329.05A12.8,12.8,0,0,0,98.65,311L82.1,294.4l16.55-16.55a12.8,12.8,0,0,0-18.1-18.1L55,285.35a12.8,12.8,0,0,0,0,18.1Z"/><path class="cls-4" d="M413.35,329.05a12.8,12.8,0,0,0,18.1,0l25.6-25.6a12.8,12.8,0,0,0,0-18.1l-25.6-25.6a12.8,12.8,0,0,0-18.1,18.1L429.9,294.4,413.35,311A12.8,12.8,0,0,0,413.35,329.05Z"/></svg>